<svg xmlns="http://www.w3.org/2000/svg" width="120" height="120" viewBox="0 0 415 415" preserveAspectRatio="xMinYMid meet"><g transform="translate(-490.76 -134.75)"><circle cx="698.26" cy="342.25" r="200" style="fill:#009457;fill-opacity:1;stroke:#00b46c;stroke-width:15;stroke-linecap:round;stroke-linejoin:round;stroke-dasharray:none;stroke-opacity:1"/><path d="M723.16 203.77a3 3 0 0 0-3 3v16a3 3 0 0 0 3 3h10a3 3 0 0 0 3-3v-16a3 3 0 0 0-3-3zm-29.8.44a3 3 0 0 0-3 3v16a3 3 0 0 0 3 3h10a3 3 0 0 0 3-3v-16a3 3 0 0 0-3-3zm60 .06a3 3 0 0 0-3 3v16a3 3 0 0 0 3 3h10a3 3 0 0 0 3-3v-16a3 3 0 0 0-3-3zm-120.2.54a3 3 0 0 0-3 3v16a3 3 0 0 0 3 3h10a3 3 0 0 0 3-3v-16a3 3 0 0 0-3-3zm30 0a3 3 0 0 0-3 3v16a3 3 0 0 0 3 3h10a3 3 0 0 0 3-3v-16a3 3 0 0 0-3-3zm-44.9 27.57c-9.56 0-17.5 7.94-17.5 17.5v23.11a13.5 13.5 0 0 1 12.34-8.07h.01c.9 0 1.78.1 2.65.27v-15.31c0-1.51.99-2.5 2.5-2.5h160c1.52 0 2.5.99 2.5 2.5v15.31a13.5 13.5 0 0 1 15 7.8v-23.11c0-9.56-7.93-17.5-17.5-17.5zm-5.16 38.03a7.98 7.98 0 0 0-5.66 13.67l75.24 75.23L693.99 348l-75.23-75.24a7.98 7.98 0 0 0-5.66-2.35zm170.32 0c-2.04 0-4.09.79-5.65 2.35L656 394.52a47.65 47.65 0 0 0-61.04 5.18 47.61 47.61 0 0 0 0 67.17 47.61 47.61 0 0 0 67.18 0 47.65 47.65 0 0 0 5.17-61.04l121.76-121.75a7.98 7.98 0 0 0 0-11.32 7.97 7.97 0 0 0-5.66-2.35zm-177.57 19.72-24.75 24.75 10.61 10.6 11.31-11.3 7.08 7.06-11.32 11.32 10.61 10.6 24.75-24.74zm184.82 0-28.28 28.29 24.74 24.74 10.61-10.6-11.31-11.32 7.07-7.07 11.31 11.32 10.61-10.61zm-189.9 52.19v45.86a52.02 52.02 0 0 1 15-6.2v-37.4l-2.48 2.48a5.54 5.54 0 0 1-7.78 0zm195 0-4.75 4.74a5.54 5.54 0 0 1-7.78 0l-2.48-2.47v37.4a52.02 52.02 0 0 1 15 6.2zm-81.9 25.56-11.3 11.32 26.63 26.63a47.65 47.65 0 0 0 5.18 61.04 47.62 47.62 0 0 0 67.17 0 47.61 47.61 0 0 0 0-67.17 47.65 47.65 0 0 0-61.03-5.18zm-85.31 32.86c8.3 0 16.6 3.19 22.98 9.56a32.39 32.39 0 0 1 0 45.97 32.39 32.39 0 0 1-45.96 0 32.39 32.39 0 0 1 0-45.97 32.4 32.4 0 0 1 22.98-9.56zm139.4 0c8.3 0 16.61 3.19 22.99 9.56a32.39 32.39 0 0 1 0 45.97 32.39 32.39 0 0 1-45.96 0 32.39 32.39 0 0 1 0-45.97 32.4 32.4 0 0 1 22.98-9.56zm-91.04 11.64a53.65 53.65 0 0 1 4.04 15h34.6a53.65 53.65 0 0 1 4.04-15z" style="baseline-shift:baseline;display:inline;overflow:visible;opacity:1;vector-effect:none;fill:#fff;enable-background:accumulate;stop-color:#000;stop-opacity:1"/></g></svg>
